<svg width="220" height="220" viewBox="0 0 220 220" fill="none" xmlns="http://www.w3.org/2000/svg">
    <g filter="url(#filter0_d_1_70)">
    <rect x="30" y="10" width="160" height="160" rx="80" fill="#006340"/>
    <path d="M73.3555 59.6982V65.1719H70.4609V59.6982H73.3555ZM73.0029 89.998V94.9893H70.1084V89.998H73.0029ZM75.0439 83.9121C75.0439 83.207 74.9141 82.6071 74.6543 82.1123C74.4069 81.6175 73.9987 81.1784 73.4297 80.7949C72.873 80.4115 72.1185 80.0404 71.166 79.6816C69.5579 79.0632 68.1416 78.4076 66.917 77.7148C65.7048 77.0098 64.7585 76.1377 64.0781 75.0986C63.3978 74.0472 63.0576 72.7174 63.0576 71.1094C63.0576 69.5755 63.4225 68.2458 64.1523 67.1201C64.8822 65.9945 65.8903 65.1286 67.1768 64.5225C68.4756 63.904 69.9847 63.5947 71.7041 63.5947C73.0153 63.5947 74.2028 63.7926 75.2666 64.1885C76.3304 64.5719 77.2458 65.141 78.0127 65.8955C78.7796 66.6377 79.3672 67.5469 79.7754 68.623C80.1836 69.6992 80.3877 70.93 80.3877 72.3154H75.0625C75.0625 71.5732 74.9821 70.9176 74.8213 70.3486C74.6605 69.7796 74.4255 69.3034 74.1162 68.9199C73.8193 68.5365 73.4606 68.252 73.04 68.0664C72.6195 67.8685 72.1556 67.7695 71.6484 67.7695C70.8939 67.7695 70.2754 67.918 69.793 68.2148C69.3105 68.5117 68.958 68.9137 68.7354 69.4209C68.5251 69.9157 68.4199 70.4847 68.4199 71.1279C68.4199 71.7588 68.5312 72.3092 68.7539 72.7793C68.9889 73.2493 69.391 73.6823 69.96 74.0781C70.529 74.4616 71.3083 74.8574 72.2979 75.2656C73.9059 75.8841 75.3161 76.5521 76.5283 77.2695C77.7406 77.987 78.6868 78.8652 79.3672 79.9043C80.0475 80.9434 80.3877 82.2669 80.3877 83.875C80.3877 85.4707 80.0166 86.8314 79.2744 87.957C78.5322 89.0703 77.4932 89.9238 76.1572 90.5176C74.8213 91.099 73.2751 91.3896 71.5186 91.3896C70.3805 91.3896 69.2487 91.2412 68.123 90.9443C66.9974 90.6351 65.9769 90.1403 65.0615 89.46C64.1462 88.7796 63.4163 87.8766 62.8721 86.751C62.3278 85.613 62.0557 84.2152 62.0557 82.5576H67.3994C67.3994 83.4606 67.5169 84.2152 67.752 84.8213C67.987 85.415 68.2962 85.8913 68.6797 86.25C69.0755 86.5964 69.5208 86.8438 70.0156 86.9922C70.5104 87.1406 71.0114 87.2148 71.5186 87.2148C72.3102 87.2148 72.9596 87.0726 73.4668 86.7881C73.9863 86.5036 74.376 86.1139 74.6357 85.6191C74.9079 85.112 75.0439 84.543 75.0439 83.9121ZM97.0498 63.9287V91H91.7061V70.0889L85.2861 72.1299V67.918L96.4746 63.9287H97.0498ZM106.327 88.4209C106.327 87.6292 106.599 86.9674 107.144 86.4355C107.7 85.9036 108.436 85.6377 109.352 85.6377C110.267 85.6377 110.997 85.9036 111.541 86.4355C112.098 86.9674 112.376 87.6292 112.376 88.4209C112.376 89.2126 112.098 89.8743 111.541 90.4062C110.997 90.9382 110.267 91.2041 109.352 91.2041C108.436 91.2041 107.7 90.9382 107.144 90.4062C106.599 89.8743 106.327 89.2126 106.327 88.4209ZM120.651 86.9365H121.004C122.488 86.9365 123.762 86.7572 124.826 86.3984C125.902 86.0273 126.787 85.4954 127.479 84.8027C128.172 84.11 128.686 83.2627 129.02 82.2607C129.354 81.2464 129.521 80.096 129.521 78.8096V73.6885C129.521 72.7113 129.422 71.8516 129.224 71.1094C129.038 70.3672 128.766 69.7549 128.407 69.2725C128.061 68.7777 127.653 68.4066 127.183 68.1592C126.725 67.9118 126.218 67.7881 125.661 67.7881C125.067 67.7881 124.542 67.9365 124.084 68.2334C123.626 68.5179 123.237 68.9076 122.915 69.4023C122.606 69.8971 122.365 70.4661 122.191 71.1094C122.031 71.7402 121.95 72.402 121.95 73.0947C121.95 73.7874 122.031 74.4492 122.191 75.0801C122.352 75.6986 122.593 76.249 122.915 76.7314C123.237 77.2015 123.639 77.5788 124.121 77.8633C124.604 78.1354 125.173 78.2715 125.828 78.2715C126.459 78.2715 127.022 78.154 127.517 77.9189C128.024 77.6715 128.451 77.3499 128.797 76.9541C129.156 76.5583 129.428 76.1191 129.613 75.6367C129.811 75.1543 129.91 74.6657 129.91 74.1709L131.673 75.1357C131.673 76.0016 131.487 76.8551 131.116 77.6963C130.745 78.5374 130.226 79.3044 129.558 79.9971C128.902 80.6774 128.141 81.2217 127.275 81.6299C126.41 82.0381 125.482 82.2422 124.492 82.2422C123.23 82.2422 122.111 82.0133 121.134 81.5557C120.157 81.0856 119.328 80.4424 118.647 79.626C117.979 78.7972 117.472 77.8324 117.126 76.7314C116.78 75.6305 116.606 74.4368 116.606 73.1504C116.606 71.8392 116.817 70.6084 117.237 69.458C117.67 68.3076 118.283 67.2933 119.074 66.415C119.878 65.5368 120.837 64.8503 121.95 64.3555C123.076 63.8483 124.325 63.5947 125.698 63.5947C127.071 63.5947 128.321 63.8607 129.446 64.3926C130.572 64.9245 131.537 65.679 132.341 66.6562C133.145 67.6211 133.763 68.7777 134.196 70.126C134.642 71.4743 134.864 72.971 134.864 74.6162V76.4717C134.864 78.2282 134.673 79.861 134.289 81.3701C133.918 82.8792 133.355 84.2461 132.601 85.4707C131.858 86.6829 130.931 87.722 129.817 88.5879C128.716 89.4538 127.436 90.1156 125.977 90.5732C124.517 91.0309 122.884 91.2598 121.078 91.2598H120.651V86.9365ZM142.472 86.9365H142.824C144.309 86.9365 145.583 86.7572 146.646 86.3984C147.723 86.0273 148.607 85.4954 149.3 84.8027C149.993 84.11 150.506 83.2627 150.84 82.2607C151.174 81.2464 151.341 80.096 151.341 78.8096V73.6885C151.341 72.7113 151.242 71.8516 151.044 71.1094C150.858 70.3672 150.586 69.7549 150.228 69.2725C149.881 68.7777 149.473 68.4066 149.003 68.1592C148.545 67.9118 148.038 67.7881 147.481 67.7881C146.888 67.7881 146.362 67.9365 145.904 68.2334C145.447 68.5179 145.057 68.9076 144.735 69.4023C144.426 69.8971 144.185 70.4661 144.012 71.1094C143.851 71.7402 143.771 72.402 143.771 73.0947C143.771 73.7874 143.851 74.4492 144.012 75.0801C144.173 75.6986 144.414 76.249 144.735 76.7314C145.057 77.2015 145.459 77.5788 145.941 77.8633C146.424 78.1354 146.993 78.2715 147.648 78.2715C148.279 78.2715 148.842 78.154 149.337 77.9189C149.844 77.6715 150.271 77.3499 150.617 76.9541C150.976 76.5583 151.248 76.1191 151.434 75.6367C151.632 75.1543 151.73 74.6657 151.73 74.1709L153.493 75.1357C153.493 76.0016 153.308 76.8551 152.937 77.6963C152.565 78.5374 152.046 79.3044 151.378 79.9971C150.722 80.6774 149.962 81.2217 149.096 81.6299C148.23 82.0381 147.302 82.2422 146.312 82.2422C145.051 82.2422 143.931 82.0133 142.954 81.5557C141.977 81.0856 141.148 80.4424 140.468 79.626C139.8 78.7972 139.293 77.8324 138.946 76.7314C138.6 75.6305 138.427 74.4368 138.427 73.1504C138.427 71.8392 138.637 70.6084 139.058 69.458C139.491 68.3076 140.103 67.2933 140.895 66.415C141.699 65.5368 142.657 64.8503 143.771 64.3555C144.896 63.8483 146.146 63.5947 147.519 63.5947C148.892 63.5947 150.141 63.8607 151.267 64.3926C152.392 64.9245 153.357 65.679 154.161 66.6562C154.965 67.6211 155.584 68.7777 156.017 70.126C156.462 71.4743 156.685 72.971 156.685 74.6162V76.4717C156.685 78.2282 156.493 79.861 156.109 81.3701C155.738 82.8792 155.175 84.2461 154.421 85.4707C153.679 86.6829 152.751 87.722 151.638 88.5879C150.537 89.4538 149.257 90.1156 147.797 90.5732C146.337 91.0309 144.704 91.2598 142.898 91.2598H142.472V86.9365Z" fill="white"/>
    <path d="M59.2705 116.709V117.338C59.2705 118.085 59.1771 118.755 58.9902 119.348C58.8034 119.94 58.5345 120.444 58.1836 120.858C57.8327 121.273 57.4111 121.59 56.9189 121.809C56.4313 122.027 55.8844 122.137 55.2783 122.137C54.6904 122.137 54.1504 122.027 53.6582 121.809C53.1706 121.59 52.7467 121.273 52.3867 120.858C52.0312 120.444 51.7555 119.94 51.5596 119.348C51.3636 118.755 51.2656 118.085 51.2656 117.338V116.709C51.2656 115.962 51.3613 115.294 51.5527 114.706C51.7487 114.114 52.0244 113.61 52.3799 113.195C52.7354 112.776 53.1569 112.457 53.6445 112.238C54.1367 112.02 54.6768 111.91 55.2646 111.91C55.8708 111.91 56.4176 112.02 56.9053 112.238C57.3975 112.457 57.819 112.776 58.1699 113.195C58.5254 113.61 58.7965 114.114 58.9834 114.706C59.1748 115.294 59.2705 115.962 59.2705 116.709ZM57.9648 117.338V116.695C57.9648 116.103 57.9033 115.579 57.7803 115.123C57.6618 114.667 57.4863 114.285 57.2539 113.975C57.0215 113.665 56.7367 113.43 56.3994 113.271C56.0667 113.111 55.6885 113.031 55.2646 113.031C54.8545 113.031 54.4831 113.111 54.1504 113.271C53.8223 113.43 53.5397 113.665 53.3027 113.975C53.0703 114.285 52.8903 114.667 52.7627 115.123C52.6351 115.579 52.5713 116.103 52.5713 116.695V117.338C52.5713 117.935 52.6351 118.464 52.7627 118.924C52.8903 119.38 53.0726 119.765 53.3096 120.079C53.5511 120.389 53.8359 120.624 54.1641 120.783C54.4967 120.943 54.8682 121.022 55.2783 121.022C55.7067 121.022 56.0872 120.943 56.4199 120.783C56.7526 120.624 57.0329 120.389 57.2607 120.079C57.4932 119.765 57.6686 119.38 57.7871 118.924C57.9056 118.464 57.9648 117.935 57.9648 117.338ZM62.3193 115.766V122H61.0547V114.604H62.2852L62.3193 115.766ZM64.6299 114.562L64.623 115.738C64.5182 115.715 64.418 115.702 64.3223 115.697C64.2311 115.688 64.1263 115.684 64.0078 115.684C63.7161 115.684 63.4587 115.729 63.2354 115.82C63.012 115.911 62.8229 116.039 62.668 116.203C62.513 116.367 62.39 116.563 62.2988 116.791C62.2122 117.014 62.1553 117.26 62.1279 117.529L61.7725 117.734C61.7725 117.288 61.8158 116.868 61.9023 116.477C61.9935 116.085 62.1325 115.738 62.3193 115.438C62.5062 115.132 62.7432 114.895 63.0303 114.727C63.3219 114.553 63.6683 114.467 64.0693 114.467C64.1605 114.467 64.2653 114.478 64.3838 114.501C64.5023 114.519 64.5843 114.54 64.6299 114.562ZM67.1729 114.604V122H65.9014V114.604H67.1729ZM65.8057 112.642C65.8057 112.437 65.8672 112.263 65.9902 112.122C66.1178 111.981 66.3047 111.91 66.5508 111.91C66.7923 111.91 66.9769 111.981 67.1045 112.122C67.2367 112.263 67.3027 112.437 67.3027 112.642C67.3027 112.838 67.2367 113.006 67.1045 113.147C66.9769 113.284 66.7923 113.353 66.5508 113.353C66.3047 113.353 66.1178 113.284 65.9902 113.147C65.8672 113.006 65.8057 112.838 65.8057 112.642ZM73.9951 114.604H75.1436V121.843C75.1436 122.494 75.0114 123.05 74.7471 123.511C74.4827 123.971 74.1136 124.32 73.6396 124.557C73.1702 124.798 72.6279 124.919 72.0127 124.919C71.7575 124.919 71.4567 124.878 71.1104 124.796C70.7686 124.718 70.4313 124.584 70.0986 124.393C69.7705 124.206 69.4948 123.953 69.2715 123.634L69.9346 122.882C70.2445 123.256 70.568 123.515 70.9053 123.661C71.2471 123.807 71.5843 123.88 71.917 123.88C72.318 123.88 72.6644 123.805 72.9561 123.654C73.2477 123.504 73.4733 123.281 73.6328 122.984C73.7969 122.693 73.8789 122.333 73.8789 121.904V116.23L73.9951 114.604ZM68.9023 118.384V118.24C68.9023 117.675 68.9684 117.162 69.1006 116.702C69.2373 116.237 69.431 115.839 69.6816 115.506C69.9368 115.173 70.2445 114.918 70.6045 114.74C70.9645 114.558 71.3701 114.467 71.8213 114.467C72.2861 114.467 72.6917 114.549 73.0381 114.713C73.389 114.872 73.6852 115.107 73.9268 115.417C74.1729 115.722 74.3665 116.091 74.5078 116.524C74.6491 116.957 74.7471 117.447 74.8018 117.994V118.623C74.7516 119.165 74.6536 119.653 74.5078 120.086C74.3665 120.519 74.1729 120.888 73.9268 121.193C73.6852 121.499 73.389 121.733 73.0381 121.897C72.6872 122.057 72.277 122.137 71.8076 122.137C71.3656 122.137 70.9645 122.043 70.6045 121.856C70.249 121.67 69.9437 121.408 69.6885 121.07C69.4333 120.733 69.2373 120.337 69.1006 119.881C68.9684 119.421 68.9023 118.922 68.9023 118.384ZM70.167 118.24V118.384C70.167 118.753 70.2035 119.099 70.2764 119.423C70.3538 119.746 70.4701 120.031 70.625 120.277C70.7845 120.523 70.9873 120.717 71.2334 120.858C71.4795 120.995 71.7734 121.063 72.1152 121.063C72.5345 121.063 72.8809 120.975 73.1543 120.797C73.4277 120.619 73.6442 120.384 73.8037 120.093C73.9678 119.801 74.0954 119.484 74.1865 119.143V117.495C74.1364 117.244 74.0589 117.003 73.9541 116.771C73.8538 116.534 73.7217 116.324 73.5576 116.142C73.3981 115.955 73.1999 115.807 72.9629 115.697C72.7259 115.588 72.4479 115.533 72.1289 115.533C71.7826 115.533 71.484 115.606 71.2334 115.752C70.9873 115.893 70.7845 116.089 70.625 116.34C70.4701 116.586 70.3538 116.873 70.2764 117.201C70.2035 117.525 70.167 117.871 70.167 118.24ZM78.4385 114.604V122H77.167V114.604H78.4385ZM77.0713 112.642C77.0713 112.437 77.1328 112.263 77.2559 112.122C77.3835 111.981 77.5703 111.91 77.8164 111.91C78.0579 111.91 78.2425 111.981 78.3701 112.122C78.5023 112.263 78.5684 112.437 78.5684 112.642C78.5684 112.838 78.5023 113.006 78.3701 113.147C78.2425 113.284 78.0579 113.353 77.8164 113.353C77.5703 113.353 77.3835 113.284 77.2559 113.147C77.1328 113.006 77.0713 112.838 77.0713 112.642ZM81.7334 116.183V122H80.4688V114.604H81.665L81.7334 116.183ZM81.4326 118.021L80.9062 118.001C80.9108 117.495 80.986 117.028 81.1318 116.6C81.2777 116.167 81.4827 115.791 81.7471 115.472C82.0114 115.153 82.3258 114.907 82.6904 114.733C83.0596 114.556 83.4674 114.467 83.9141 114.467C84.2786 114.467 84.6068 114.517 84.8984 114.617C85.1901 114.713 85.4385 114.868 85.6436 115.082C85.8532 115.296 86.0127 115.574 86.1221 115.916C86.2314 116.253 86.2861 116.666 86.2861 117.153V122H85.0146V117.14C85.0146 116.752 84.9577 116.442 84.8438 116.21C84.7298 115.973 84.5635 115.802 84.3447 115.697C84.126 115.588 83.8571 115.533 83.5381 115.533C83.2236 115.533 82.9365 115.599 82.6768 115.731C82.4215 115.864 82.2005 116.046 82.0137 116.278C81.8314 116.511 81.6878 116.777 81.583 117.078C81.4827 117.374 81.4326 117.689 81.4326 118.021ZM92.5684 120.735V116.928C92.5684 116.636 92.5091 116.383 92.3906 116.169C92.2767 115.95 92.1035 115.782 91.8711 115.663C91.6387 115.545 91.3516 115.485 91.0098 115.485C90.6908 115.485 90.4105 115.54 90.1689 115.649C89.932 115.759 89.7451 115.902 89.6084 116.08C89.4762 116.258 89.4102 116.449 89.4102 116.654H88.1455C88.1455 116.39 88.2139 116.128 88.3506 115.868C88.4873 115.608 88.6833 115.374 88.9385 115.164C89.1982 114.95 89.5081 114.781 89.8682 114.658C90.2327 114.531 90.6383 114.467 91.085 114.467C91.6227 114.467 92.0967 114.558 92.5068 114.74C92.9215 114.923 93.2451 115.198 93.4775 115.567C93.7145 115.932 93.833 116.39 93.833 116.941V120.387C93.833 120.633 93.8535 120.895 93.8945 121.173C93.9401 121.451 94.0062 121.69 94.0928 121.891V122H92.7734C92.7096 121.854 92.6595 121.66 92.623 121.419C92.5866 121.173 92.5684 120.945 92.5684 120.735ZM92.7871 117.516L92.8008 118.404H91.5225C91.1624 118.404 90.8411 118.434 90.5586 118.493C90.276 118.548 90.0391 118.632 89.8477 118.746C89.6562 118.86 89.5104 119.004 89.4102 119.177C89.3099 119.345 89.2598 119.544 89.2598 119.771C89.2598 120.004 89.3122 120.216 89.417 120.407C89.5218 120.599 89.679 120.751 89.8887 120.865C90.1029 120.975 90.3649 121.029 90.6748 121.029C91.0622 121.029 91.404 120.947 91.7002 120.783C91.9964 120.619 92.2311 120.419 92.4043 120.182C92.582 119.945 92.6777 119.715 92.6914 119.491L93.2314 120.1C93.1995 120.291 93.113 120.503 92.9717 120.735C92.8304 120.968 92.6413 121.191 92.4043 121.405C92.1719 121.615 91.8939 121.79 91.5703 121.932C91.2513 122.068 90.8913 122.137 90.4902 122.137C89.9889 122.137 89.5492 122.039 89.1709 121.843C88.7972 121.647 88.5055 121.385 88.2959 121.057C88.0908 120.724 87.9883 120.353 87.9883 119.942C87.9883 119.546 88.0658 119.197 88.2207 118.896C88.3757 118.591 88.599 118.338 88.8906 118.138C89.1823 117.933 89.5332 117.778 89.9434 117.673C90.3535 117.568 90.8115 117.516 91.3174 117.516H92.7871ZM97.1963 111.5V122H95.9248V111.5H97.1963ZM104.948 120.858L106.972 114.604H108.264L105.604 122H104.757L104.948 120.858ZM103.26 114.604L105.345 120.893L105.488 122H104.641L101.961 114.604H103.26ZM113.732 120.735V116.928C113.732 116.636 113.673 116.383 113.555 116.169C113.441 115.95 113.268 115.782 113.035 115.663C112.803 115.545 112.516 115.485 112.174 115.485C111.855 115.485 111.575 115.54 111.333 115.649C111.096 115.759 110.909 115.902 110.772 116.08C110.64 116.258 110.574 116.449 110.574 116.654H109.31C109.31 116.39 109.378 116.128 109.515 115.868C109.651 115.608 109.847 115.374 110.103 115.164C110.362 114.95 110.672 114.781 111.032 114.658C111.397 114.531 111.802 114.467 112.249 114.467C112.787 114.467 113.261 114.558 113.671 114.74C114.086 114.923 114.409 115.198 114.642 115.567C114.879 115.932 114.997 116.39 114.997 116.941V120.387C114.997 120.633 115.018 120.895 115.059 121.173C115.104 121.451 115.17 121.69 115.257 121.891V122H113.938C113.874 121.854 113.824 121.66 113.787 121.419C113.751 121.173 113.732 120.945 113.732 120.735ZM113.951 117.516L113.965 118.404H112.687C112.326 118.404 112.005 118.434 111.723 118.493C111.44 118.548 111.203 118.632 111.012 118.746C110.82 118.86 110.674 119.004 110.574 119.177C110.474 119.345 110.424 119.544 110.424 119.771C110.424 120.004 110.476 120.216 110.581 120.407C110.686 120.599 110.843 120.751 111.053 120.865C111.267 120.975 111.529 121.029 111.839 121.029C112.226 121.029 112.568 120.947 112.864 120.783C113.16 120.619 113.395 120.419 113.568 120.182C113.746 119.945 113.842 119.715 113.855 119.491L114.396 120.1C114.364 120.291 114.277 120.503 114.136 120.735C113.994 120.968 113.805 121.191 113.568 121.405C113.336 121.615 113.058 121.79 112.734 121.932C112.415 122.068 112.055 122.137 111.654 122.137C111.153 122.137 110.713 122.039 110.335 121.843C109.961 121.647 109.67 121.385 109.46 121.057C109.255 120.724 109.152 120.353 109.152 119.942C109.152 119.546 109.23 119.197 109.385 118.896C109.54 118.591 109.763 118.338 110.055 118.138C110.346 117.933 110.697 117.778 111.107 117.673C111.518 117.568 111.976 117.516 112.481 117.516H113.951ZM118.36 111.5V122H117.089V111.5H118.36ZM124.916 120.291V114.604H126.188V122H124.978L124.916 120.291ZM125.155 118.732L125.682 118.719C125.682 119.211 125.629 119.667 125.524 120.086C125.424 120.501 125.26 120.861 125.032 121.166C124.804 121.471 124.506 121.711 124.137 121.884C123.768 122.052 123.319 122.137 122.79 122.137C122.43 122.137 122.1 122.084 121.799 121.979C121.503 121.875 121.247 121.713 121.033 121.494C120.819 121.275 120.653 120.991 120.534 120.64C120.42 120.289 120.363 119.867 120.363 119.375V114.604H121.628V119.389C121.628 119.721 121.664 119.997 121.737 120.216C121.815 120.43 121.917 120.601 122.045 120.729C122.177 120.852 122.323 120.938 122.482 120.988C122.646 121.038 122.815 121.063 122.988 121.063C123.526 121.063 123.952 120.961 124.267 120.756C124.581 120.546 124.807 120.266 124.943 119.915C125.085 119.56 125.155 119.165 125.155 118.732ZM131.185 122.137C130.67 122.137 130.202 122.05 129.783 121.877C129.368 121.699 129.011 121.451 128.71 121.132C128.414 120.813 128.186 120.435 128.026 119.997C127.867 119.56 127.787 119.081 127.787 118.562V118.274C127.787 117.673 127.876 117.137 128.054 116.668C128.231 116.194 128.473 115.793 128.778 115.465C129.084 115.137 129.43 114.888 129.817 114.72C130.205 114.551 130.606 114.467 131.021 114.467C131.549 114.467 132.005 114.558 132.388 114.74C132.775 114.923 133.092 115.178 133.338 115.506C133.584 115.829 133.766 116.212 133.885 116.654C134.003 117.092 134.062 117.57 134.062 118.09V118.657H128.539V117.625H132.798V117.529C132.78 117.201 132.711 116.882 132.593 116.572C132.479 116.262 132.297 116.007 132.046 115.807C131.795 115.606 131.453 115.506 131.021 115.506C130.733 115.506 130.469 115.567 130.228 115.69C129.986 115.809 129.779 115.987 129.605 116.224C129.432 116.461 129.298 116.75 129.202 117.092C129.106 117.434 129.059 117.828 129.059 118.274V118.562C129.059 118.912 129.106 119.243 129.202 119.553C129.302 119.858 129.446 120.127 129.633 120.359C129.824 120.592 130.054 120.774 130.323 120.906C130.597 121.038 130.907 121.104 131.253 121.104C131.7 121.104 132.078 121.013 132.388 120.831C132.698 120.649 132.969 120.405 133.201 120.1L133.967 120.708C133.807 120.95 133.604 121.18 133.358 121.398C133.112 121.617 132.809 121.795 132.449 121.932C132.094 122.068 131.672 122.137 131.185 122.137ZM142.655 110.434V112.519H141.63V110.434H142.655ZM142.532 121.597V123.422H141.514V121.597H142.532ZM143.899 119.437C143.899 119.163 143.838 118.917 143.715 118.698C143.592 118.479 143.389 118.279 143.106 118.097C142.824 117.914 142.446 117.746 141.972 117.591C141.397 117.413 140.901 117.197 140.481 116.941C140.067 116.686 139.745 116.369 139.518 115.991C139.294 115.613 139.183 115.155 139.183 114.617C139.183 114.057 139.303 113.574 139.545 113.168C139.786 112.762 140.128 112.45 140.57 112.231C141.012 112.013 141.532 111.903 142.129 111.903C142.594 111.903 143.008 111.974 143.373 112.115C143.738 112.252 144.045 112.457 144.296 112.73C144.551 113.004 144.745 113.339 144.877 113.735C145.014 114.132 145.082 114.59 145.082 115.109H143.824C143.824 114.804 143.788 114.524 143.715 114.269C143.642 114.013 143.533 113.792 143.387 113.605C143.241 113.414 143.063 113.268 142.854 113.168C142.644 113.063 142.402 113.011 142.129 113.011C141.746 113.011 141.429 113.077 141.179 113.209C140.933 113.341 140.75 113.528 140.632 113.77C140.513 114.007 140.454 114.282 140.454 114.597C140.454 114.888 140.513 115.144 140.632 115.362C140.75 115.581 140.951 115.779 141.233 115.957C141.521 116.13 141.915 116.301 142.416 116.47C143.004 116.657 143.503 116.878 143.913 117.133C144.323 117.383 144.635 117.693 144.85 118.062C145.064 118.427 145.171 118.881 145.171 119.423C145.171 120.011 145.039 120.507 144.774 120.913C144.51 121.314 144.139 121.619 143.66 121.829C143.182 122.039 142.621 122.144 141.979 122.144C141.591 122.144 141.208 122.091 140.83 121.986C140.452 121.882 140.11 121.711 139.805 121.474C139.499 121.232 139.256 120.915 139.073 120.523C138.891 120.127 138.8 119.642 138.8 119.067H140.071C140.071 119.455 140.126 119.776 140.235 120.031C140.349 120.282 140.5 120.482 140.687 120.633C140.873 120.779 141.078 120.883 141.302 120.947C141.53 121.007 141.755 121.036 141.979 121.036C142.389 121.036 142.735 120.972 143.018 120.845C143.305 120.713 143.523 120.526 143.674 120.284C143.824 120.043 143.899 119.76 143.899 119.437ZM148.35 117.263L147.338 117.003L147.837 112.047H152.943V113.216H148.91L148.609 115.923C148.792 115.818 149.022 115.72 149.3 115.629C149.582 115.538 149.906 115.492 150.271 115.492C150.731 115.492 151.143 115.572 151.508 115.731C151.872 115.886 152.182 116.11 152.438 116.401C152.697 116.693 152.896 117.044 153.032 117.454C153.169 117.864 153.237 118.322 153.237 118.828C153.237 119.307 153.171 119.746 153.039 120.147C152.911 120.549 152.718 120.899 152.458 121.2C152.198 121.496 151.87 121.727 151.474 121.891C151.082 122.055 150.619 122.137 150.086 122.137C149.685 122.137 149.304 122.082 148.944 121.973C148.589 121.859 148.27 121.688 147.987 121.46C147.709 121.228 147.481 120.94 147.304 120.599C147.131 120.252 147.021 119.847 146.976 119.382H148.179C148.233 119.756 148.343 120.07 148.507 120.325C148.671 120.58 148.885 120.774 149.149 120.906C149.418 121.034 149.73 121.098 150.086 121.098C150.387 121.098 150.653 121.045 150.886 120.94C151.118 120.836 151.314 120.685 151.474 120.489C151.633 120.293 151.754 120.056 151.836 119.778C151.923 119.5 151.966 119.188 151.966 118.842C151.966 118.527 151.923 118.236 151.836 117.967C151.749 117.698 151.619 117.463 151.446 117.263C151.278 117.062 151.07 116.907 150.824 116.798C150.578 116.684 150.296 116.627 149.977 116.627C149.553 116.627 149.231 116.684 149.013 116.798C148.799 116.912 148.577 117.067 148.35 117.263ZM160.873 116.23V117.748C160.873 118.564 160.8 119.252 160.654 119.812C160.508 120.373 160.299 120.824 160.025 121.166C159.752 121.508 159.422 121.756 159.034 121.911C158.651 122.062 158.218 122.137 157.735 122.137C157.353 122.137 156.999 122.089 156.676 121.993C156.352 121.897 156.061 121.745 155.801 121.535C155.546 121.321 155.327 121.043 155.145 120.701C154.962 120.359 154.823 119.945 154.728 119.457C154.632 118.969 154.584 118.4 154.584 117.748V116.23C154.584 115.415 154.657 114.731 154.803 114.18C154.953 113.628 155.165 113.186 155.438 112.854C155.712 112.516 156.04 112.275 156.423 112.129C156.81 111.983 157.243 111.91 157.722 111.91C158.109 111.91 158.465 111.958 158.788 112.054C159.116 112.145 159.408 112.293 159.663 112.498C159.918 112.699 160.135 112.967 160.312 113.305C160.495 113.637 160.634 114.045 160.729 114.528C160.825 115.011 160.873 115.579 160.873 116.23ZM159.602 117.953V116.019C159.602 115.572 159.574 115.18 159.52 114.843C159.469 114.501 159.394 114.209 159.294 113.968C159.194 113.726 159.066 113.53 158.911 113.38C158.761 113.229 158.585 113.12 158.385 113.052C158.189 112.979 157.968 112.942 157.722 112.942C157.421 112.942 157.154 112.999 156.922 113.113C156.689 113.223 156.493 113.398 156.334 113.64C156.179 113.881 156.061 114.198 155.979 114.59C155.896 114.982 155.855 115.458 155.855 116.019V117.953C155.855 118.4 155.881 118.794 155.931 119.136C155.985 119.478 156.065 119.774 156.17 120.024C156.275 120.271 156.402 120.473 156.553 120.633C156.703 120.792 156.876 120.911 157.072 120.988C157.273 121.061 157.494 121.098 157.735 121.098C158.045 121.098 158.316 121.038 158.549 120.92C158.781 120.801 158.975 120.617 159.13 120.366C159.289 120.111 159.408 119.785 159.485 119.389C159.563 118.988 159.602 118.509 159.602 117.953ZM168.748 116.23V117.748C168.748 118.564 168.675 119.252 168.529 119.812C168.383 120.373 168.174 120.824 167.9 121.166C167.627 121.508 167.297 121.756 166.909 121.911C166.526 122.062 166.093 122.137 165.61 122.137C165.228 122.137 164.874 122.089 164.551 121.993C164.227 121.897 163.936 121.745 163.676 121.535C163.421 121.321 163.202 121.043 163.02 120.701C162.837 120.359 162.698 119.945 162.603 119.457C162.507 118.969 162.459 118.4 162.459 117.748V116.23C162.459 115.415 162.532 114.731 162.678 114.18C162.828 113.628 163.04 113.186 163.313 112.854C163.587 112.516 163.915 112.275 164.298 112.129C164.685 111.983 165.118 111.91 165.597 111.91C165.984 111.91 166.34 111.958 166.663 112.054C166.991 112.145 167.283 112.293 167.538 112.498C167.793 112.699 168.01 112.967 168.188 113.305C168.37 113.637 168.509 114.045 168.604 114.528C168.7 115.011 168.748 115.579 168.748 116.23ZM167.477 117.953V116.019C167.477 115.572 167.449 115.18 167.395 114.843C167.344 114.501 167.269 114.209 167.169 113.968C167.069 113.726 166.941 113.53 166.786 113.38C166.636 113.229 166.46 113.12 166.26 113.052C166.064 112.979 165.843 112.942 165.597 112.942C165.296 112.942 165.029 112.999 164.797 113.113C164.564 113.223 164.368 113.398 164.209 113.64C164.054 113.881 163.936 114.198 163.854 114.59C163.771 114.982 163.73 115.458 163.73 116.019V117.953C163.73 118.4 163.756 118.794 163.806 119.136C163.86 119.478 163.94 119.774 164.045 120.024C164.15 120.271 164.277 120.473 164.428 120.633C164.578 120.792 164.751 120.911 164.947 120.988C165.148 121.061 165.369 121.098 165.61 121.098C165.92 121.098 166.191 121.038 166.424 120.92C166.656 120.801 166.85 120.617 167.005 120.366C167.164 120.111 167.283 119.785 167.36 119.389C167.438 118.988 167.477 118.509 167.477 117.953Z" fill="white"/>
    </g>
    <defs>
    <filter id="filter0_d_1_70" x="0" y="0" width="220" height="220" filterUnits="userSpaceOnUse" color-interpolation-filters="sRGB">
    <feFlood flood-opacity="0" result="BackgroundImageFix"/>
    <feColorMatrix in="SourceAlpha" type="matrix" values="0 0 0 0 0 0 0 0 0 0 0 0 0 0 0 0 0 0 127 0" result="hardAlpha"/>
    <feOffset dy="20"/>
    <feGaussianBlur stdDeviation="15"/>
    <feComposite in2="hardAlpha" operator="out"/>
    <feColorMatrix type="matrix" values="0 0 0 0 0 0 0 0 0 0 0 0 0 0 0 0 0 0 0.15 0"/>
    <feBlend mode="normal" in2="BackgroundImageFix" result="effect1_dropShadow_1_70"/>
    <feBlend mode="normal" in="SourceGraphic" in2="effect1_dropShadow_1_70" result="shape"/>
    </filter>
    </defs>
    </svg>
    